<svg width="182" height="182" viewBox="0 0 182 182" fill="none" xmlns="http://www.w3.org/2000/svg">
<g filter="url(#filter0_d_3043_667)">
<circle cx="92.8" cy="86.8" r="80" fill="#4EA487"/>
<path d="M31.3239 85.4158C30.7519 85.3486 30.2352 85.0839 29.774 84.6216C29.3127 84.1594 28.9431 83.5575 28.665 82.816C28.3844 82.0957 28.1892 81.2888 28.0793 80.3952C27.9694 79.5016 27.9692 78.5887 28.0787 77.6564C28.3921 74.9868 29.6224 73.0154 31.7695 71.7425C33.9166 70.4695 36.8335 70.0495 40.5202 70.4824C44.2068 70.9152 46.9458 72.0101 48.7372 73.767C50.526 75.5451 51.26 77.8007 50.9391 80.534C50.8396 81.3815 50.659 82.1873 50.3975 82.9513C50.1359 83.7154 49.822 84.3766 49.4557 84.935C49.0869 85.5146 48.6814 85.9503 48.239 86.242C47.7941 86.555 47.328 86.6828 46.8407 86.6256C46.417 86.5758 46.0486 86.3285 45.7357 85.8837C45.444 85.4413 45.3628 84.8518 45.4923 84.1152C46.7411 84.09 47.715 83.7533 48.414 83.105C49.1317 82.4805 49.559 81.5855 49.6958 80.4202C49.9098 78.5981 49.2134 77.1201 47.6067 75.9863C46.0211 74.855 43.5333 74.0904 40.1433 73.6923C36.7532 73.2943 34.1466 73.45 32.3234 74.1596C30.5189 74.8928 29.5109 76.1599 29.2995 77.9609C29.2099 78.7236 29.2867 79.4415 29.5299 80.1144C29.7706 80.8086 30.1826 81.4154 30.766 81.935C31.3681 82.4783 32.1359 82.8906 33.0695 83.1721C33.0646 83.5796 32.9986 83.9585 32.8716 84.3087C32.7445 84.659 32.5508 84.937 32.2904 85.1427C32.0486 85.372 31.7265 85.4631 31.3239 85.4158ZM30.0591 105.633C29.8401 104.698 29.9942 103.906 30.5214 103.257C31.0534 102.628 32.0464 102.143 33.5003 101.803L35.9929 101.219L35.8896 101.901C34.5862 101.855 33.3662 101.604 32.2294 101.147C31.1133 100.686 30.163 100.043 29.3784 99.2188C28.6145 98.3899 28.0988 97.4042 27.8312 96.2618C27.549 95.057 27.6472 94.0262 28.1257 93.1691C28.6249 92.3072 29.425 91.7473 30.5259 91.4895C31.419 91.2803 32.2515 91.3263 33.0232 91.6276C33.7997 91.9496 34.509 92.4518 35.1508 93.134C35.7927 93.8163 36.3605 94.6035 36.8543 95.4958C37.2871 96.3146 37.6497 97.1609 37.942 98.0346C38.2343 98.9083 38.4552 99.7111 38.6047 100.443L39.3836 100.26C41.1699 99.8421 42.444 99.2479 43.2058 98.4778C43.9884 97.7029 44.2215 96.6404 43.9053 95.2903C43.7934 94.8126 43.6088 94.3519 43.3515 93.9082C43.099 93.4853 42.7494 93.1618 42.3025 92.9378C41.8813 92.7297 41.3487 92.7011 40.7048 92.8519C40.3102 92.9444 39.9063 93.1376 39.4931 93.4316C39.1056 93.7415 38.8743 94.1572 38.7992 94.6787C38.5013 94.5293 38.2664 94.3215 38.0944 94.055C37.9432 93.7836 37.8311 93.4922 37.7581 93.1806C37.5781 92.4121 37.715 91.7337 38.1688 91.1453C38.6482 90.5729 39.241 90.204 39.9473 90.0386C41.1728 89.7515 42.2364 90.083 43.1381 91.0331C44.0399 91.9831 44.7097 93.3928 45.1476 95.2622C45.6585 97.4432 45.4827 99.1715 44.6202 100.447C43.7834 101.739 42.2121 102.655 39.9065 103.195L33.8621 104.61C32.7613 104.868 32.296 105.361 32.4663 106.088C32.5003 106.233 32.5808 106.389 32.7077 106.557C32.8602 106.74 33.0549 106.87 33.2918 106.946C33.134 107.114 32.9666 107.241 32.7893 107.327C32.6378 107.428 32.4789 107.498 32.3127 107.537C31.835 107.649 31.3789 107.526 30.9444 107.167C30.5099 106.809 30.2148 106.297 30.0591 105.633ZM30.0768 97.149C30.2289 97.705 30.5417 98.2452 31.0151 98.7697C31.5093 99.2894 32.1056 99.7304 32.8039 100.093C33.5023 100.455 34.2619 100.704 35.0826 100.841C35.9033 100.977 36.7316 100.958 37.5673 100.785C37.4761 100.302 37.3441 99.7851 37.1712 99.234C37.0239 98.6988 36.8351 98.1734 36.6048 97.6576C36.3793 97.1627 36.1244 96.7294 35.8402 96.3578C35.3291 95.5791 34.7373 95.0166 34.0645 94.6703C33.3918 94.3239 32.6608 94.2431 31.8715 94.428C31.2691 94.5691 30.7576 94.8642 30.337 95.3133C29.9371 95.7576 29.8503 96.3695 30.0768 97.149ZM52.1551 112.84C52.7704 113.788 53.0696 114.7 53.0527 115.576C53.0536 116.44 52.8422 117.251 52.4185 118.009C51.9947 118.767 51.4297 119.464 50.7235 120.1C50.0468 120.742 49.3325 121.307 48.5808 121.795C46.1109 123.397 43.865 124.129 41.843 123.991C39.8326 123.871 38.2528 122.925 37.1035 121.153C36.523 120.259 36.2086 119.382 36.1602 118.523C36.1235 117.682 36.3312 116.925 36.7835 116.25L33.9377 118.096C33.5619 118.34 33.1202 118.639 32.6128 118.993C32.117 119.366 31.627 119.747 31.1428 120.138C30.6523 120.557 30.2481 120.934 29.9303 121.267C29.7533 121.23 29.5208 121.126 29.233 120.957C28.9389 120.817 28.6816 120.577 28.461 120.237C28.194 119.825 28.0987 119.404 28.1751 118.973C28.2336 118.554 28.4598 118.216 28.8535 117.961L44.2542 108.009C44.7554 107.684 45.0695 107.404 45.1968 107.169C45.3419 106.923 45.3216 106.656 45.1358 106.37C45.0778 106.28 44.9844 106.175 44.8557 106.055C44.7271 105.935 44.5442 105.889 44.3072 105.915C44.3986 105.704 44.5075 105.518 44.6337 105.36C44.76 105.202 44.8857 105.082 45.011 105.001C45.4048 104.746 45.8314 104.698 46.291 104.857C46.7505 105.017 47.1428 105.348 47.4679 105.849C48.0019 106.672 48.0539 107.477 47.6238 108.265C47.2233 109.059 46.4503 109.827 45.3049 110.57L43.0497 112.033L42.4787 111.564C43.479 111.068 44.4421 110.71 45.368 110.491C46.3233 110.278 47.2088 110.212 48.0244 110.294C48.8694 110.381 49.6415 110.631 50.3404 111.042C51.0394 111.453 51.6443 112.052 52.1551 112.84ZM50.27 113.109C49.8637 112.482 49.3101 112.041 48.6092 111.783C47.9199 111.544 47.1338 111.469 46.251 111.558C45.3977 111.654 44.4924 111.885 43.5351 112.252C42.6073 112.625 41.6871 113.107 40.7743 113.699C40.1299 114.117 39.5504 114.557 39.0357 115.018C38.539 115.467 38.1454 115.939 37.8552 116.432C37.5945 116.932 37.4755 117.454 37.4982 117.999C37.5209 118.543 37.7239 119.111 38.107 119.702C38.8964 120.919 40.0254 121.483 41.494 121.395C42.9805 121.295 44.7797 120.561 46.8917 119.191C47.536 118.773 48.1392 118.331 48.7013 117.864C49.2929 117.404 49.7665 116.919 50.122 116.409C50.507 115.905 50.7267 115.381 50.7808 114.837C50.835 114.294 50.6648 113.717 50.27 113.109ZM63.4989 125.153C64.3992 125.837 64.9898 126.594 65.2707 127.423C65.5644 128.236 65.6403 129.07 65.4986 129.927C65.3568 130.784 65.0615 131.631 64.6127 132.469C64.1937 133.303 63.7132 134.076 63.1713 134.79C61.3905 137.134 59.5257 138.584 57.5766 139.14C55.6446 139.708 53.8377 139.354 52.1558 138.076C51.3064 137.431 50.7134 136.713 50.3769 135.921C50.0574 135.143 49.9961 134.359 50.1929 133.571L48.1411 136.272C47.8702 136.629 47.5561 137.06 47.1988 137.566C46.8586 138.084 46.5269 138.609 46.2036 139.141C45.8844 139.702 45.6318 140.193 45.4458 140.614C45.2665 140.639 45.0127 140.62 44.6845 140.559C44.3605 140.527 44.037 140.388 43.7142 140.143C43.3235 139.846 43.0911 139.482 43.0169 139.051C42.9298 138.636 43.0282 138.242 43.3121 137.869L54.4285 123.286C54.7898 122.811 54.9905 122.441 55.0305 122.177C55.0834 121.895 54.9739 121.651 54.7021 121.445C54.6172 121.38 54.4939 121.314 54.3321 121.244C54.1704 121.175 53.9826 121.193 53.7686 121.298C53.7828 121.068 53.8225 120.857 53.8877 120.666C53.9528 120.474 54.0306 120.319 54.1209 120.2C54.4048 119.826 54.79 119.636 55.2764 119.631C55.7628 119.625 56.2439 119.803 56.7196 120.164C57.501 120.758 57.8229 121.498 57.6852 122.385C57.5775 123.267 57.1106 124.252 56.2848 125.339L54.6589 127.48L53.9628 127.233C54.7357 126.427 55.5206 125.764 56.3174 125.244C57.1441 124.72 57.9548 124.358 58.7497 124.158C59.5744 123.954 60.3852 123.927 61.1822 124.076C61.9792 124.226 62.7514 124.585 63.4989 125.153ZM61.8166 126.045C61.222 125.594 60.5514 125.365 59.8047 125.361C59.0751 125.369 58.3101 125.565 57.5099 125.949C56.7396 126.328 55.9662 126.852 55.1899 127.522C54.4434 128.187 53.7411 128.953 53.083 129.819C52.6185 130.431 52.2222 131.041 51.8942 131.649C51.5791 132.24 51.3687 132.817 51.2629 133.379C51.1869 133.938 51.2519 134.469 51.4579 134.974C51.6639 135.479 52.0472 135.944 52.6078 136.37C53.763 137.247 55.0166 137.396 56.3684 136.815C57.7331 136.218 59.1768 134.917 60.6995 132.912C61.164 132.301 61.5817 131.68 61.9525 131.051C62.3531 130.418 62.6342 129.801 62.7958 129.2C62.9872 128.595 63.0163 128.028 62.8829 127.498C62.7496 126.968 62.3942 126.484 61.8166 126.045ZM76.8177 150.288C75.902 150 75.2994 149.463 75.0098 148.679C74.7406 147.9 74.8303 146.799 75.2791 145.375L76.0484 142.933L76.5819 143.37C75.8781 144.468 75.0398 145.389 74.067 146.134C73.1007 146.858 72.063 147.347 70.9539 147.602C69.8512 147.836 68.7404 147.777 67.6213 147.424C66.4411 147.052 65.6045 146.442 65.1115 145.593C64.6248 144.724 64.5514 143.751 64.8911 142.672C65.1668 141.797 65.631 141.105 66.2838 140.595C66.957 140.091 67.7507 139.737 68.6649 139.533C69.5791 139.329 70.5459 139.242 71.5652 139.273C72.4903 139.318 73.4032 139.438 74.3037 139.632C75.2043 139.827 76.0075 140.046 76.7132 140.291L76.9536 139.528C77.505 137.778 77.6438 136.379 77.3701 135.331C77.1028 134.263 76.3079 133.52 74.9853 133.103C74.5173 132.956 74.0269 132.88 73.514 132.875C73.0215 132.876 72.5649 133.012 72.1443 133.282C71.7505 133.538 71.4542 133.981 71.2555 134.612C71.1337 134.999 71.0938 135.445 71.1359 135.95C71.2047 136.441 71.4443 136.852 71.8546 137.183C71.5742 137.363 71.2755 137.459 70.9586 137.471C70.6481 137.463 70.3402 137.41 70.035 137.314C69.2822 137.077 68.7685 136.613 68.4939 135.923C68.2461 135.218 68.2312 134.52 68.4492 133.829C68.8275 132.628 69.6552 131.882 70.9323 131.591C72.2094 131.3 73.7636 131.443 75.5949 132.02C77.7314 132.694 79.1282 133.726 79.7854 135.119C80.4694 136.498 80.4556 138.316 79.744 140.575L77.8784 146.496C77.5386 147.574 77.7248 148.226 78.437 148.45C78.5794 148.495 78.755 148.505 78.9638 148.482C79.1993 148.444 79.4101 148.343 79.5963 148.178C79.6607 148.399 79.6844 148.608 79.6674 148.804C79.6772 148.986 79.6564 149.158 79.6051 149.321C79.4577 149.789 79.119 150.119 78.5891 150.31C78.0593 150.501 77.4688 150.493 76.8177 150.288ZM69.5299 145.945C70.0857 146.098 70.7099 146.105 71.4025 145.965C72.1016 145.805 72.785 145.517 73.4529 145.101C74.1207 144.685 74.7226 144.159 75.2586 143.523C75.7946 142.887 76.201 142.165 76.4778 141.357C76.0163 141.19 75.5044 141.039 74.9422 140.907C74.4067 140.761 73.8585 140.655 73.2974 140.59C72.7566 140.532 72.254 140.53 71.7893 140.585C70.8589 140.627 70.0732 140.849 69.4321 141.251C68.791 141.653 68.3487 142.241 68.105 143.014C67.9191 143.604 67.912 144.194 68.0837 144.785C68.2618 145.356 68.7439 145.743 69.5299 145.945ZM90.7989 152.338C89.6904 152.38 88.7651 152.192 88.0231 151.772C87.3015 151.33 86.7235 150.733 86.2889 149.982C85.8543 149.23 85.5341 148.399 85.3282 147.489C85.1216 146.557 85.0006 145.633 84.9653 144.717C84.8528 141.796 85.3406 139.493 86.4285 137.807C87.5378 136.121 89.1796 135.235 91.354 135.152C92.4412 135.11 93.3554 135.288 94.0966 135.686C94.8591 136.084 95.4044 136.661 95.7324 137.417L95.5895 133.708C95.5583 132.897 95.4952 132.089 95.4 131.281C95.3041 130.452 95.147 129.7 94.9289 129.026C95.0519 128.893 95.249 128.746 95.5204 128.586C95.8123 128.404 96.1608 128.306 96.5658 128.29C97.0561 128.271 97.4665 128.394 97.7969 128.659C98.1273 128.924 98.3024 129.312 98.3221 129.824L98.9895 147.987C99.0117 148.563 99.1134 148.986 99.2946 149.256C99.4963 149.505 99.7571 149.623 100.077 149.611C100.183 149.607 100.321 149.58 100.49 149.531C100.679 149.459 100.813 149.326 100.891 149.131C101.047 149.296 101.15 149.473 101.2 149.663C101.271 149.853 101.31 150.022 101.315 150.171C101.334 150.662 101.147 151.064 100.753 151.378C100.359 151.671 99.8527 151.829 99.2345 151.853C98.2752 151.89 97.5463 151.533 97.0477 150.784C96.5697 150.013 96.304 148.934 96.2506 147.548L96.1509 144.958L96.8457 144.707C96.7605 145.821 96.5646 146.832 96.258 147.74C95.9727 148.648 95.5763 149.442 95.0689 150.124C94.5827 150.804 93.9842 151.34 93.2733 151.73C92.5617 152.099 91.7369 152.302 90.7989 152.338ZM91.5318 150.58C92.2779 150.551 92.9301 150.302 93.4885 149.832C94.0673 149.34 94.5334 148.693 94.8867 147.889C95.2614 147.085 95.5249 146.167 95.6774 145.137C95.8512 144.105 95.9163 143.025 95.8728 141.895C95.8482 141.255 95.7707 140.628 95.6403 140.014C95.509 139.379 95.3057 138.81 95.0302 138.308C94.7547 137.807 94.366 137.416 93.8642 137.136C93.3624 136.857 92.7278 136.732 91.9604 136.761C90.596 136.814 89.5765 137.504 88.9018 138.833C88.2476 140.139 87.9681 142.028 88.0633 144.501C88.0945 145.311 88.1564 146.088 88.2491 146.832C88.3631 147.575 88.5489 148.24 88.8063 148.828C89.063 149.394 89.4111 149.84 89.8506 150.165C90.2892 150.468 90.8496 150.606 91.5318 150.58ZM115.08 148.405C112.903 149.282 110.922 149.275 109.138 148.384C107.365 147.465 105.976 145.758 104.972 143.265C103.96 140.752 103.775 138.55 104.416 136.658C105.077 134.759 106.496 133.372 108.673 132.495C110.85 131.618 112.825 131.64 114.598 132.559C116.37 133.477 117.763 135.194 118.775 137.707C119.779 140.2 119.96 142.392 119.319 144.284C118.67 146.155 117.257 147.529 115.08 148.405ZM114.626 147.277C115.932 146.752 116.686 145.769 116.889 144.331C117.111 142.884 116.78 141.063 115.896 138.866C115.003 136.65 113.975 135.097 112.813 134.209C111.662 133.292 110.433 133.097 109.127 133.623C107.801 134.157 107.031 135.157 106.817 136.623C106.614 138.062 106.959 139.889 107.851 142.106C108.736 144.302 109.75 145.849 110.893 146.745C112.055 147.634 113.3 147.811 114.626 147.277ZM134.438 137.485C132.645 139.032 130.766 139.696 128.801 139.476C126.852 139.242 124.971 138.076 123.159 135.976C121.416 133.958 120.552 131.928 120.565 129.887C120.581 127.816 121.526 125.972 123.399 124.355C124.772 123.17 126.064 122.561 127.277 122.529C128.489 122.497 129.478 122.925 130.245 123.814C130.747 124.395 130.99 125.003 130.974 125.637C130.957 126.271 130.691 126.811 130.174 127.257C129.948 127.452 129.679 127.614 129.367 127.742C129.071 127.857 128.782 127.881 128.5 127.815C128.646 127.463 128.666 127.093 128.558 126.707C128.45 126.321 128.229 125.935 127.895 125.547C127.49 125.079 127.058 124.79 126.597 124.68C126.138 124.541 125.692 124.546 125.257 124.695C124.823 124.845 124.395 125.101 123.976 125.464C123.007 126.3 122.598 127.442 122.749 128.89C122.902 130.308 123.724 131.881 125.216 133.609C126.331 134.901 127.4 135.796 128.422 136.295C129.446 136.763 130.411 136.917 131.315 136.756C132.221 136.566 133.046 136.15 133.789 135.509C134.37 135.007 134.811 134.457 135.112 133.859C135.429 133.247 135.597 132.609 135.616 131.944C135.634 131.28 135.478 130.626 135.147 129.982C135.364 129.907 135.589 129.938 135.821 130.076C136.053 130.214 136.293 130.542 136.543 131.06C137.007 132.152 137.047 133.259 136.662 134.381C136.277 135.502 135.536 136.537 134.438 137.485ZM129.831 115.077C129.541 115.499 129.138 115.766 128.622 115.877C128.118 115.971 127.654 115.873 127.232 115.583C126.792 115.282 126.526 114.879 126.432 114.374C126.35 113.853 126.454 113.381 126.743 112.958C127.033 112.536 127.43 112.278 127.934 112.184C128.438 112.09 128.91 112.194 129.35 112.496C129.772 112.786 130.03 113.183 130.124 113.687C130.218 114.191 130.12 114.654 129.831 115.077ZM143.331 122.437C143.841 122.787 144.369 123.111 144.915 123.408C145.462 123.705 145.994 123.928 146.513 124.077C146.546 124.255 146.54 124.509 146.494 124.84C146.478 125.165 146.355 125.495 146.126 125.829C145.86 126.216 145.523 126.463 145.113 126.57C144.698 126.648 144.288 126.547 143.883 126.27L134.551 119.906C134.023 119.544 133.486 119.214 132.939 118.917C132.405 118.602 131.873 118.379 131.342 118.248C131.321 118.052 131.327 117.798 131.361 117.485C131.395 117.171 131.526 116.848 131.755 116.513C132.021 116.126 132.353 115.888 132.75 115.799C133.142 115.68 133.549 115.765 133.972 116.055L143.331 122.437ZM155.898 104.306C155.587 105.214 155.037 105.804 154.245 106.075C153.461 106.325 152.362 106.209 150.949 105.726L148.526 104.899L148.975 104.376C150.056 105.106 150.957 105.966 151.678 106.956C152.379 107.94 152.844 108.989 153.072 110.104C153.28 111.212 153.194 112.321 152.814 113.431C152.414 114.602 151.784 115.424 150.924 115.896C150.044 116.362 149.068 116.412 147.998 116.047C147.13 115.75 146.449 115.27 145.955 114.605C145.467 113.92 145.133 113.118 144.951 112.199C144.768 111.28 144.705 110.312 144.76 109.293C144.827 108.37 144.969 107.46 145.185 106.564C145.4 105.668 145.639 104.871 145.901 104.171L145.143 103.913C143.407 103.319 142.012 103.147 140.958 103.396C139.883 103.637 139.122 104.414 138.674 105.727C138.515 106.191 138.427 106.679 138.41 107.192C138.4 107.684 138.524 108.144 138.784 108.571C139.031 108.971 139.467 109.278 140.093 109.491C140.477 109.622 140.921 109.673 141.428 109.643C141.921 109.586 142.337 109.356 142.677 108.954C142.851 109.239 142.94 109.54 142.944 109.857C142.928 110.167 142.869 110.473 142.765 110.776C142.51 111.523 142.034 112.026 141.337 112.284C140.627 112.514 139.929 112.513 139.243 112.278C138.051 111.871 137.326 111.026 137.065 109.742C136.805 108.458 136.985 106.908 137.606 105.091C138.33 102.971 139.396 101.6 140.804 100.976C142.198 100.325 144.016 100.383 146.257 101.148L152.132 103.155C153.202 103.52 153.857 103.35 154.099 102.643C154.147 102.502 154.162 102.326 154.143 102.117C154.111 101.881 154.015 101.668 153.854 101.478C154.077 101.418 154.287 101.4 154.482 101.421C154.664 101.416 154.836 101.441 154.998 101.496C155.462 101.655 155.783 102.001 155.961 102.535C156.14 103.07 156.118 103.66 155.898 104.306ZM151.382 111.488C151.548 110.936 151.569 110.312 151.446 109.616C151.303 108.913 151.031 108.223 150.632 107.546C150.232 106.868 149.72 106.254 149.097 105.703C148.474 105.152 147.762 104.728 146.961 104.432C146.782 104.889 146.62 105.398 146.474 105.956C146.315 106.488 146.196 107.034 146.118 107.593C146.047 108.132 146.033 108.635 146.077 109.101C146.097 110.032 146.3 110.823 146.686 111.473C147.073 112.124 147.65 112.58 148.417 112.842C149.002 113.042 149.592 113.063 150.187 112.906C150.762 112.741 151.16 112.269 151.382 111.488ZM158.595 80.57C158.664 81.0989 158.542 81.5665 158.229 81.9728C157.916 82.3792 157.505 82.6153 156.998 82.6812C156.469 82.7499 156.001 82.6278 155.595 82.3148C155.188 82.0019 154.951 81.581 154.882 81.0521C154.816 80.5444 154.94 80.0873 155.253 79.681C155.566 79.2746 155.987 79.0371 156.516 78.9684C157.023 78.9025 157.48 79.026 157.887 79.3389C158.293 79.6519 158.529 80.0622 158.595 80.57ZM148.653 52.2772C148.917 52.6907 149.018 53.1069 148.957 53.5259C148.877 53.9563 148.631 54.3036 148.217 54.5678L131.029 65.5852L129.624 63.0278L144.438 53.5263C144.96 53.1933 145.464 52.8332 145.951 52.4463C146.438 52.0593 146.851 51.6561 147.191 51.2366C147.367 51.2756 147.599 51.3807 147.886 51.552C148.179 51.6939 148.435 51.9356 148.653 52.2772ZM135.785 69.3444C135.828 69.5701 135.782 69.8148 135.646 70.0785C135.481 70.3356 135.281 70.5773 135.046 70.8035C134.799 71.0117 134.563 71.1373 134.338 71.1802C134.094 71.2346 133.915 71.172 133.8 70.9922L125.686 58.2905C125.571 58.1107 125.595 57.9307 125.759 57.7504C125.893 57.5636 126.112 57.4111 126.416 57.2928C126.708 57.1565 127.012 57.0766 127.326 57.0531C127.61 57.0232 127.846 57.0751 128.033 57.209C128.239 57.8877 128.485 58.6292 128.771 59.4338C129.027 60.2318 129.322 61.0306 129.656 61.8301C129.989 62.6296 130.374 63.371 130.811 64.0541C131.236 64.7193 131.735 65.3623 132.309 65.9831C132.882 66.6039 133.477 67.1984 134.094 67.7667C134.68 68.3286 135.244 68.8545 135.785 69.3444ZM121.416 47.8672C121.052 47.5713 120.84 47.2065 120.78 46.773C120.72 46.3394 120.864 45.9073 121.214 45.4768L128.433 36.5402C128.81 36.0766 129.029 35.7051 129.091 35.4257C129.123 35.1494 129.023 34.9171 128.792 34.7288C128.692 34.6481 128.563 34.5705 128.403 34.496C128.231 34.438 128.042 34.4499 127.838 34.5317C127.872 34.1188 128.002 33.7716 128.231 33.4901C128.527 33.1259 128.91 32.9422 129.38 32.939C129.833 32.9224 130.308 33.1159 130.805 33.5195C131.467 34.0575 131.805 34.6898 131.82 35.4162C131.804 36.1458 131.434 36.9576 130.707 37.8518L129.436 39.4165L128.66 39.6105C129.566 38.6978 130.514 38.0385 131.503 37.6328C132.479 37.2437 133.451 37.1127 134.42 37.24C135.359 37.3703 136.25 37.7785 137.095 38.4645C138.419 39.5407 139.088 40.7302 139.102 42.033C139.085 43.3389 138.31 44.9357 136.777 46.8233L132.822 51.6913C132.472 52.1218 132.121 52.6056 131.767 53.1427C131.399 53.6963 131.12 54.2257 130.93 54.7307C130.673 54.7421 130.405 54.7167 130.126 54.6547C129.817 54.5957 129.513 54.4451 129.215 54.203C128.834 53.8936 128.615 53.5371 128.558 53.1336C128.485 52.7165 128.609 52.3093 128.932 51.9119L134.299 45.3054C135.12 44.2953 135.718 43.4069 136.094 42.6401C136.456 41.8898 136.592 41.2311 136.503 40.6641C136.384 40.1001 136.035 39.5827 135.455 39.1119C135.058 38.7891 134.582 38.5806 134.026 38.4864C133.47 38.3923 132.847 38.4492 132.155 38.6573C131.451 38.8819 130.705 39.2927 129.917 39.8899C129.113 40.4736 128.281 41.2952 127.42 42.3549C126.64 43.3153 126.002 44.1168 125.508 44.7595C124.996 45.3887 124.588 45.9087 124.281 46.3195C123.962 46.7469 123.727 47.12 123.578 47.4387C123.399 47.7605 123.244 48.0876 123.111 48.4197C122.931 48.4384 122.686 48.4182 122.377 48.3592C122.068 48.3003 121.747 48.1363 121.416 47.8672ZM120.763 27.2196C121.162 27.3711 121.468 27.6471 121.681 28.0475C121.886 28.4679 121.894 28.9273 121.705 29.4259L117.648 40.1054C117.436 40.6638 117.358 41.0792 117.414 41.3516C117.443 41.6363 117.607 41.8355 117.906 41.9492C118.006 41.987 118.147 42.0064 118.329 42.0071C118.504 42.0279 118.675 41.9674 118.843 41.8258C118.961 42.2358 118.956 42.6103 118.827 42.9493C118.653 43.408 118.353 43.7164 117.928 43.8744C117.483 44.0248 116.951 43.9826 116.333 43.7477C115.535 43.4447 115.037 42.9245 114.838 42.187C114.611 41.462 114.727 40.5249 115.187 39.3758L115.846 37.6407L116.182 37.8369C115.319 39.4487 114.355 40.5433 113.292 41.1205C112.2 41.7102 111.077 41.7853 109.92 41.3459C108.883 40.952 108.141 40.3508 107.695 39.5424C107.242 38.7539 107.208 37.8512 107.594 36.8341C107.852 36.156 108.254 35.6696 108.799 35.3748C109.345 35.08 109.871 35.0173 110.377 35.1867C110.943 35.3789 111.302 35.6638 111.456 36.0415C111.06 36.302 110.779 36.5605 110.613 36.817C110.44 37.0934 110.289 37.4011 110.16 37.7401C109.925 38.3584 109.894 38.8601 110.067 39.2454C110.233 39.6506 110.585 39.9554 111.123 40.16C111.642 40.357 112.221 40.3032 112.862 39.9988C113.495 39.7144 114.148 39.1067 114.821 38.1757C115.487 37.2647 116.141 35.9616 116.785 34.2664C117.217 33.1297 117.577 32.1824 117.865 31.4246C118.125 30.6791 118.34 30.0533 118.509 29.5471C118.671 29.0609 118.787 28.6369 118.856 28.2752C118.917 27.9334 118.945 27.5902 118.939 27.2456C119.104 27.1714 119.353 27.1175 119.685 27.0839C119.997 27.0428 120.356 27.0881 120.763 27.2196ZM102.961 21.7753C103.6 21.8079 104.029 21.9899 104.247 22.3214C104.442 22.6732 104.528 23.0941 104.503 23.5841L103.463 44.0056C103.458 44.5181 103.289 44.9046 102.956 45.1653C102.622 45.426 102.21 45.5439 101.72 45.519C101.294 45.4973 100.947 45.3942 100.678 45.2096C100.409 45.0464 100.214 44.8976 100.092 44.7632C100.248 44.2158 100.36 43.7088 100.426 43.2422C100.493 42.7757 100.558 42.3304 100.622 41.9065C100.664 41.5028 100.696 41.0772 100.719 40.6298C100.741 40.2037 100.786 39.7467 100.853 39.2588L101.189 33.2842L101.368 33.5496C101.016 34.5997 100.532 35.4936 99.9178 36.2313C99.2811 36.9893 98.5253 37.5703 97.6503 37.9743C96.7753 38.3784 95.7945 38.5527 94.7079 38.4974C93.3656 38.4291 92.3816 38.0372 91.7558 37.3218C91.1301 36.6064 90.8443 35.716 90.8985 34.6508C90.943 33.7772 91.2068 33.0003 91.69 32.32C92.1509 31.6599 92.7352 31.0915 93.443 30.6149C94.1295 30.1372 94.8655 29.7367 95.6509 29.4136C95.3794 29.293 95.1542 29.0999 94.9755 28.8345C94.7744 28.5893 94.5754 28.3015 94.3786 27.971L92.8377 24.8807C92.624 24.464 92.4474 24.1559 92.308 23.9566C92.1463 23.7775 91.9162 23.6803 91.618 23.6651C91.5114 23.6597 91.3719 23.674 91.1992 23.7079C91.0255 23.7631 90.8603 23.8615 90.7036 24.0031C90.562 23.8463 90.4637 23.6811 90.4084 23.5074C90.3532 23.3337 90.3299 23.1617 90.3386 22.9912C90.3657 22.4586 90.6335 22.0236 91.1419 21.6864C91.628 21.3693 92.1693 21.226 92.7659 21.2564C93.3412 21.2857 93.8545 21.4827 94.3058 21.8474C94.7572 22.2122 95.1046 22.7318 95.3479 23.4064L97.6665 28.8433C98.3389 28.6426 98.9996 28.4626 99.6485 28.3034C100.275 28.1644 100.858 28.0446 101.397 27.9438C101.444 27.0277 101.483 26.2607 101.514 25.6428C101.545 25.0462 101.559 24.5557 101.557 24.1711C101.533 23.8067 101.496 23.4844 101.446 23.2042C101.374 22.9442 101.293 22.6517 101.202 22.3267C101.38 22.1862 101.611 22.0591 101.895 21.9454C102.158 21.8092 102.513 21.7526 102.961 21.7753ZM101.335 29.1583C100.47 29.3705 99.6026 29.6254 98.733 29.9229C97.841 30.2407 97.0422 30.6166 96.3366 31.0506C95.6096 31.4835 95.0286 31.988 94.5934 32.5639C94.1358 33.1601 93.887 33.8523 93.8468 34.6406C93.8067 35.4289 93.9809 35.9932 94.3695 36.3334C94.7356 36.6938 95.217 36.8892 95.8135 36.9196C96.8149 36.9705 97.7276 36.6646 98.5517 36.0016C99.3535 35.3589 99.9983 34.4411 100.486 33.2484C100.973 32.077 101.256 30.7136 101.335 29.1583ZM76.3795 23.2849C78.6174 22.6532 80.6007 22.8472 82.3292 23.8666C84.0373 24.8919 85.2679 26.739 86.0213 29.4081C86.7456 31.9745 86.6799 34.1765 85.8242 36.014C84.9743 37.8721 83.338 39.143 80.9153 39.8268C79.8066 40.1397 78.7718 40.2433 77.811 40.1377C76.856 40.0525 76.0365 39.7407 75.3525 39.2023C74.6538 38.6902 74.1654 37.9413 73.8872 36.9558C73.4526 35.416 73.7485 34.069 74.7749 32.9148C75.7866 31.7869 77.3601 30.9216 79.4953 30.319C80.3371 30.0814 81.1773 29.8775 82.0159 29.7073C82.8398 29.5634 83.709 29.4622 84.6235 29.4036L84.8574 30.4681C84.321 30.5308 83.7258 30.6212 83.072 30.7393C82.4181 30.8573 81.7495 31.0017 81.0662 31.1724C80.3887 31.3636 79.7564 31.5975 79.1694 31.874C78.5883 32.171 78.089 32.5225 77.6716 32.9285C77.2599 33.355 76.9931 33.8626 76.8711 34.4512C76.7285 35.0456 76.7673 35.7329 76.9875 36.5131C77.2077 37.2933 77.5195 37.8481 77.9228 38.1776C78.3262 38.5071 78.7768 38.6902 79.2749 38.727C79.7582 38.7901 80.236 38.755 80.7082 38.6217C82.0222 38.2508 82.9144 37.3673 83.3848 35.971C83.8405 34.601 83.7554 32.8074 83.1296 30.59C82.6602 28.927 82.0709 27.6636 81.3616 26.7997C80.6581 25.9565 79.8656 25.4265 78.9843 25.2097C78.0882 25.0193 77.1577 25.0602 76.1927 25.3326C75.084 25.6455 74.1828 26.1437 73.489 26.8272C72.8011 27.5312 72.419 28.3373 72.3428 29.2455C72.1143 29.2213 71.9271 29.1079 71.7813 28.9052C71.6354 28.7025 71.5927 28.3156 71.6531 27.7444C71.7767 26.6898 72.2616 25.7771 73.1081 25.0062C73.9545 24.2353 75.045 23.6615 76.3795 23.2849ZM54.489 25.2151C55.2616 24.682 56.0596 24.2609 56.8831 23.9518C57.7066 23.6428 58.492 23.5414 59.2393 23.6478C59.957 23.7487 60.5581 24.1504 61.0428 24.8527C61.3942 25.3619 61.533 25.9011 61.4593 26.4704C61.3734 27.0221 61.0584 27.4858 60.514 27.8614C60.0048 28.2128 59.5331 28.3179 59.0989 28.177C59.2357 27.8493 59.2719 27.5262 59.2076 27.2077C59.1258 26.9013 59.0182 26.6515 58.8849 26.4584C58.5699 26.0019 58.2013 25.7119 57.7792 25.5885C57.345 25.4475 56.895 25.434 56.4294 25.548C55.9637 25.6619 55.5289 25.8583 55.1251 26.1369C53.7204 27.1063 53.0749 28.3682 53.1886 29.9227C53.2726 31.4717 54.0173 33.2646 55.4228 35.3014C55.6288 35.5999 55.8563 35.9484 56.1053 36.3468C56.3489 36.7749 56.5924 37.2029 56.836 37.631C57.0796 38.0591 57.2989 38.4521 57.494 38.8099L57.5577 39.4657C56.6307 37.7467 56.2527 36.1284 56.4237 34.6108C56.5892 33.1228 57.4094 31.87 58.8843 30.8522C60.2012 29.9435 61.4807 29.6567 62.7229 29.9918C63.9596 30.3566 65.2746 31.5487 66.668 33.5679L70.1394 38.5984C70.4665 39.0725 70.8382 39.5548 71.2543 40.0452C71.6705 40.5356 72.0942 40.943 72.5255 41.2675C72.4644 41.517 72.3648 41.7671 72.2268 42.0179C72.0834 42.2983 71.8536 42.5476 71.5376 42.7657C71.1337 43.0443 70.7302 43.1544 70.3268 43.0957C69.9059 43.0492 69.5501 42.8153 69.2593 42.3939L64.5157 35.5197C63.4495 33.9745 62.4951 32.9483 61.6526 32.4411C60.7925 31.9459 59.9323 31.9952 59.0719 32.5889C58.5978 32.9161 58.2289 33.3392 57.965 33.8582C57.6835 34.3894 57.5456 35.0159 57.5513 35.7378C57.5515 36.4893 57.7276 37.3268 58.0797 38.2502C58.4318 39.1736 58.9895 40.1884 59.7529 41.2946C60.4435 42.2954 61.0218 43.1146 61.4876 43.7522C61.9359 44.4018 62.3082 44.9225 62.6044 45.3143C62.9128 45.7236 63.199 46.0444 63.4631 46.2769C63.7218 46.5391 63.9919 46.7803 64.2736 47.0007C64.2409 47.1787 64.1529 47.408 64.0094 47.6884C63.866 47.9688 63.6187 48.2302 63.2675 48.4725C62.8812 48.7391 62.4716 48.8403 62.0386 48.7762C61.6056 48.7122 61.2315 48.4519 60.9165 47.9953L53.275 36.978C52.0028 35.1343 51.278 33.4831 51.1008 32.0243C50.8939 30.5601 51.107 29.2725 51.7401 28.1617C52.3612 27.0334 53.2774 26.0512 54.489 25.2151ZM36.1303 52.4479C36.4068 51.9918 36.7941 51.7027 37.2922 51.5806C37.7904 51.4584 38.2583 51.5301 38.6962 51.7955C39.1523 52.072 39.4414 52.4593 39.5635 52.9574C39.6856 53.4556 39.6084 53.9327 39.3319 54.3887C39.0665 54.8266 38.6847 55.1066 38.1866 55.2287C37.6885 55.3508 37.2114 55.2736 36.7553 54.9971C36.3175 54.7317 36.0375 54.3499 35.9154 53.8518C35.7932 53.3537 35.8649 52.8857 36.1303 52.4479Z" fill="#F1C953"/>
<g clip-path="url(#clip0_3043_667)">
<path d="M92.8 111.295C106.328 111.295 117.295 100.328 117.295 86.8001C117.295 73.2718 106.328 62.3051 92.8 62.3051C79.2718 62.3051 68.305 73.2718 68.305 86.8001C68.305 100.328 79.2718 111.295 92.8 111.295Z" fill="#E30A17"/>
<path d="M83.536 86.8001C83.536 80.5581 88.596 75.5001 94.835 75.5001C96.739 75.5001 98.534 75.9721 100.106 76.8041C97.554 74.2531 94.022 72.6741 90.13 72.6741C82.33 72.6741 76.006 78.9981 76.006 86.8001C76.006 94.6021 82.33 100.926 90.13 100.926C94.029 100.926 97.554 99.3471 100.106 96.7991C98.534 97.6311 96.739 98.1001 94.835 98.1001C88.596 98.1001 83.536 93.0401 83.536 86.8001Z" fill="white"/>
<path d="M100.429 86.8331L104.968 85.1351L105.178 80.2931L108.197 84.0861L112.865 82.7911L110.191 86.8331L112.865 90.8741L108.197 89.5791L105.178 93.3721L104.968 88.5281L100.429 86.8331Z" fill="white"/>
<mask id="mask0_3043_667" style="mask-type:luminance" maskUnits="userSpaceOnUse" x="68" y="62" width="50" height="50">
<path d="M92.8 111.3C106.331 111.3 117.3 100.331 117.3 86.8C117.3 73.2691 106.331 62.3 92.8 62.3C79.269 62.3 68.3 73.2691 68.3 86.8C68.3 100.331 79.269 111.3 92.8 111.3Z" fill="white"/>
</mask>
<g mask="url(#mask0_3043_667)">
<path opacity="0.4" d="M92.8 114.269C107.971 114.269 120.269 101.971 120.269 86.8001C120.269 71.6293 107.971 59.3311 92.8 59.3311C77.6293 59.3311 65.331 71.6293 65.331 86.8001C65.331 101.971 77.6293 114.269 92.8 114.269Z" fill="url(#paint0_radial_3043_667)"/>
</g>
<mask id="mask1_3043_667" style="mask-type:luminance" maskUnits="userSpaceOnUse" x="68" y="62" width="50" height="50">
<path d="M92.8 111.3C106.331 111.3 117.3 100.331 117.3 86.8C117.3 73.2691 106.331 62.3 92.8 62.3C79.269 62.3 68.3 73.2691 68.3 86.8C68.3 100.331 79.269 111.3 92.8 111.3Z" fill="white"/>
</mask>
<g mask="url(#mask1_3043_667)">
<path opacity="0.6" d="M92.8 118.478C110.295 118.478 124.478 104.295 124.478 86.8001C124.478 69.3048 110.295 55.1221 92.8 55.1221C75.3047 55.1221 61.122 69.3048 61.122 86.8001C61.122 104.295 75.3047 118.478 92.8 118.478Z" fill="url(#paint1_radial_3043_667)"/>
</g>
<path d="M93.106 93.802C102.664 93.802 110.412 87.5336 110.412 79.801C110.412 72.0685 102.664 65.8 93.106 65.8C83.5482 65.8 75.8 72.0685 75.8 79.801C75.8 87.5336 83.5482 93.802 93.106 93.802Z" fill="url(#paint2_linear_3043_667)"/>
</g>
</g>
<defs>
<filter id="filter0_d_3043_667" x="2.86102e-06" y="4.86374e-05" width="181.6" height="181.6" filterUnits="userSpaceOnUse" color-interpolation-filters="sRGB">
<feFlood flood-opacity="0" result="BackgroundImageFix"/>
<feColorMatrix in="SourceAlpha" type="matrix" values="0 0 0 0 0 0 0 0 0 0 0 0 0 0 0 0 0 0 127 0" result="hardAlpha"/>
<feOffset dx="-2" dy="4"/>
<feGaussianBlur stdDeviation="5.4"/>
<feComposite in2="hardAlpha" operator="out"/>
<feColorMatrix type="matrix" values="0 0 0 0 0 0 0 0 0 0 0 0 0 0 0 0 0 0 0.25 0"/>
<feBlend mode="normal" in2="BackgroundImageFix" result="effect1_dropShadow_3043_667"/>
<feBlend mode="normal" in="SourceGraphic" in2="effect1_dropShadow_3043_667" result="shape"/>
</filter>
<radialGradient id="paint0_radial_3043_667" cx="0" cy="0" r="1" gradientUnits="userSpaceOnUse" gradientTransform="translate(92.8 86.8001) scale(27.4688)">
<stop stop-opacity="0"/>
<stop offset="0.7576" stop-opacity="0"/>
<stop offset="1"/>
</radialGradient>
<radialGradient id="paint1_radial_3043_667" cx="0" cy="0" r="1" gradientUnits="userSpaceOnUse" gradientTransform="translate(92.8 86.8001) scale(31.6777)">
<stop stop-opacity="0"/>
<stop offset="0.5758" stop-opacity="0"/>
<stop offset="1"/>
</radialGradient>
<linearGradient id="paint2_linear_3043_667" x1="93.1056" y1="93.8021" x2="93.1056" y2="65.8002" gradientUnits="userSpaceOnUse">
<stop offset="0.0727" stop-color="white" stop-opacity="0.05"/>
<stop offset="0.897" stop-color="white" stop-opacity="0.75"/>
<stop offset="1" stop-color="white" stop-opacity="0.75"/>
</linearGradient>
<clipPath id="clip0_3043_667">
<rect width="50" height="50" fill="white" transform="translate(67.8 61.8)"/>
</clipPath>
</defs>
</svg>
