<svg width="32" height="32" viewBox="0 0 32 32" fill="none" xmlns="http://www.w3.org/2000/svg">
<g clip-path="url(#clip0_9387_58)">
<path d="M25 0H7C3.13401 0 0 3.13401 0 7V25C0 28.866 3.13401 32 7 32H25C28.866 32 32 28.866 32 25V7C32 3.13401 28.866 0 25 0Z" fill="#F1C953"/>
<path d="M24.4371 8.58208C24.2621 8.49165 24.0918 8.39252 23.9267 8.28505C23.4468 7.96772 23.0067 7.59382 22.616 7.17138C21.6384 6.05288 21.2733 4.91815 21.1388 4.12372H21.1442C21.0319 3.46425 21.0784 3.0376 21.0854 3.0376H16.6329V20.2544C16.6329 20.4855 16.6329 20.7139 16.6232 20.9397C16.6232 20.9678 16.6205 20.9937 16.6189 21.024C16.6189 21.0364 16.6189 21.0493 16.6162 21.0623C16.6162 21.0655 16.6162 21.0688 16.6162 21.072C16.5693 21.6898 16.3712 22.2865 16.0396 22.8097C15.7079 23.333 15.2527 23.7667 14.714 24.0727C14.1526 24.3921 13.5177 24.5596 12.8718 24.5588C10.7973 24.5588 9.11605 22.8672 9.11605 20.7782C9.11605 18.6892 10.7973 16.9976 12.8718 16.9976C13.2645 16.9973 13.6548 17.0591 14.0281 17.1807L14.0335 12.6473C12.9001 12.5009 11.7486 12.591 10.6517 12.9118C9.55482 13.2327 8.53635 13.7775 7.66052 14.5117C6.89312 15.1784 6.24795 15.974 5.75405 16.8626C5.56608 17.1867 4.85695 18.4888 4.77108 20.6021C4.71708 21.8017 5.07732 23.0444 5.24905 23.558V23.5688C5.35708 23.8713 5.77565 24.9034 6.45778 25.7735C7.00782 26.4714 7.65765 27.0844 8.38642 27.593V27.5822L8.39722 27.593C10.5527 29.0577 12.9426 28.9616 12.9426 28.9616C13.3563 28.9448 14.7421 28.9615 16.3159 28.2157C18.0615 27.3888 19.0552 26.1569 19.0552 26.1569C19.6901 25.4208 20.1949 24.5819 20.548 23.6763C20.9509 22.6172 21.0854 21.3469 21.0854 20.8393V11.7054C21.1394 11.7378 21.8588 12.2136 21.8588 12.2136C21.8588 12.2136 22.8952 12.8779 24.5122 13.3105C25.6723 13.6184 27.2353 13.6832 27.2353 13.6832V9.26312C26.6876 9.32252 25.5756 9.14972 24.4371 8.58208Z" fill="#4EA487"/>
</g>
<defs>
<clipPath id="clip0_9387_58">
<rect width="32" height="32" fill="white"/>
</clipPath>
</defs>
</svg>
